<?xml version="1.0" encoding="utf-8"?>
<!-- Svg Vector Icons : http://www.onlinewebfonts.com/icon -->
<!DOCTYPE svg PUBLIC "-//W3C//DTD SVG 1.1//EN" "http://www.w3.org/Graphics/SVG/1.1/DTD/svg11.dtd">
<svg fill="rgba(0, 206, 209, 0.9)" version="1.1" xmlns="http://www.w3.org/2000/svg" xmlns:xlink="http://www.w3.org/1999/xlink" x="0px" y="0px" viewBox="0 0 1000 1000" enable-background="new 0 0 1000 1000" xml:space="preserve">
<metadata> Svg Vector Icons : http://www.onlinewebfonts.com/icon </metadata>
<g><g transform="translate(0.000000,511.000000) scale(0.100000,-0.100000)"><path d="M4450.8,3998.8c-729.1-40.3-1521.5-218.7-2187.2-495c-473.9-197.6-1107.1-567.9-1506.1-882.6c-220.6-174.6-587.1-504.6-625.5-564.1c-44.1-67.1-42.2-186.1,3.8-237.9c49.9-55.6,142-90.2,205.3-78.7c30.7,5.8,130.5,82.5,249.4,193.8C1592,2870.7,2833.4,3432.8,4209,3569c291.6,28.8,901.8,23,1224.1-9.6c1331.5-140.1,2594-719.5,3549.5-1628.9c95.9-92.1,199.5-174.6,230.2-182.3c130.5-36.5,255.2,57.6,255.2,193.8c0,69.1-13.4,92.1-128.5,211c-163.1,168.8-514.2,464.3-763.6,642.7C7664.5,3446.2,6559.3,3860.7,5448.4,3970C5224,3993.1,4644.5,4008.4,4450.8,3998.8z"/><path d="M4297.3,2341.1c-621.6-69.1-1128.2-214.9-1669.2-479.7c-472-232.2-896-525.7-1231.8-853.8c-130.5-126.6-140.1-142-140.1-216.8c0-61.4,13.4-94,55.6-142c48-53.7,69.1-63.3,142-63.3c78.7,0,95.9,9.6,255.2,155.4c376.1,339.6,658.1,533.4,1085.9,746.3c1657.7,823.1,3670.3,535.3,5032.5-717.6c95.9-88.3,193.8-166.9,220.6-178.4c157.3-59.5,316.6,111.3,249.4,272.5c-40.3,99.8-483.5,475.8-826.9,700.3c-262.9,174.6-679.2,383.7-976.6,493.1c-274.4,101.7-704.1,211.1-997.7,255.2C5260.4,2348.8,4525.6,2366.1,4297.3,2341.1z"/><path d="M4416.2,710.3C3683.3,618.2,2937,259.4,2497.6-206.8c-117-126.6-122.8-205.3-24.9-303.1c51.8-51.8,80.6-65.2,142-65.2c67.1,0,92.1,15.3,197.6,111.3c583.3,527.6,1218.3,777.1,1974.3,777.1c750.2,0,1354.5-236,1949.3-759.8c124.7-111.3,155.4-128.5,216.8-128.5c143.9,0,241.7,142,188,272.4C7083.1-162.7,6645.7,175,6283,363c-456.6,236-884.5,343.4-1410.2,356.9C4694.4,723.7,4487.2,719.9,4416.2,710.3z"/><path d="M7094.6-964.7l-869.1-867.2v-92.1c0-76.7,9.6-103.6,55.6-149.6c51.8-51.8,67.2-55.6,201.5-55.6h145.8v-754c0-834.6-3.8-815.4,126.6-869.1c92.1-38.4,882.6-38.4,976.6,0c119,49.9,124.7,82.5,124.7,673.4v527.6h201.5h201.5v-518c0-589,7.7-633.1,122.8-681.1c95.9-40.3,884.5-42.2,978.5-1.9c130.5,53.7,126.6,34.5,126.6,869.1v754h140.1c159.2,0,213,26.9,255.2,124.7c51.8,128.5,48,132.4-871.1,1051.4L8151.8-95.5h-94h-94L7094.6-964.7z"/><path d="M4629.2-920.5c-402.9-71-732.9-366.5-830.8-738.7c-38.4-149.7-36.5-416.4,1.9-548.7c184.2-619.7,857.6-917.1,1442.8-637c143.9,69.1,383.7,305.1,450.9,447.1c322.3,673.4-107.4,1429.4-842.3,1485C4778.9-909,4679.1-911,4629.2-920.5z"/></g></g>
</svg>