<?xml version="1.0" encoding="utf-8"?>
<!-- Svg Vector Icons : http://www.onlinewebfonts.com/icon -->
<!DOCTYPE svg PUBLIC "-//W3C//DTD SVG 1.1//EN" "http://www.w3.org/Graphics/SVG/1.1/DTD/svg11.dtd">
<svg fill="#00FF7F" version="1.1" xmlns="http://www.w3.org/2000/svg" xmlns:xlink="http://www.w3.org/1999/xlink" x="0px" y="0px" viewBox="0 0 1000 1000" enable-background="new 0 0 1000 1000" xml:space="preserve">
<metadata> Svg Vector Icons : http://www.onlinewebfonts.com/icon </metadata>
<g><g transform="translate(0.000000,512.000000) scale(0.100000,-0.100000)"><path d="M4895.1,4995.2c-30.7-15.3-983.1-952.4-2111.8-2085c-1602-1602-2060-2071.5-2075.4-2121.4c-34.5-118.8,3.8-199.3,187.8-390.9c224.2-231.9,295.1-281.7,400.5-281.7c46,0,107.3,11.5,136,26.8c28.7,15.3,806.8,783.8,1728.5,1707.4s1699.8,1692.1,1728.5,1707.5c28.7,15.3,78.6,26.8,111.1,26.8s82.4-11.5,111.1-26.8c28.7-15.3,806.8-783.8,1728.5-1707.5S8539.9,158.4,8568.7,143c28.7-15.3,90.1-26.8,136.1-26.8c105.4,0,176.3,49.8,400.5,281.7c182.1,191.6,220.4,270.2,187.8,389c-15.3,53.7-452.2,500.2-2083,2131c-1168.9,1169-2088.8,2073.5-2119.4,2085C5019.6,5027.7,4966,5025.8,4895.1,4995.2z"/><path d="M6719.4,4822.7c-155.2-57.5-185.9-126.5-185.9-417.8v-216.5l620.9-620.9c459.9-459.9,628.5-617.1,651.5-609.4c30.6,11.5,32.6,88.2,26.8,854.7c-5.7,816.4-7.7,843.2-46,894.9c-95.8,130.3-103.5,132.2-569.2,136.1C6893.8,4847.6,6775,4843.8,6719.4,4822.7z"/><path d="M4875.9,2969.6c-21.1-11.5-774.2-755-1671-1653.8L1570.3-315v-1600.1c0-1563.7,1.9-1602,38.3-1663.4c21.1-34.5,65.2-78.6,99.7-99.7c61.3-36.4,99.6-38.3,998.4-38.3c1011.8,0,986.9-1.9,1086.6,105.4l47.9,51.7l9.6,1193.9c9.6,1169,9.6,1195.8,49.8,1247.5c21.1,28.8,63.2,70.9,92,92c51.7,40.3,72.8,40.3,1008,40.3c935.2,0,956.2,0,1008-40.3c28.7-21.1,70.9-63.2,92-92c40.2-51.7,40.2-78.6,49.8-1243.7c9.6-1282,5.8-1226.4,111.2-1306.9c49.8-36.4,86.2-38.3,1011.8-44.1l958.2-5.8l67.1,44.1c139.9,93.9,132.2-5.8,132.2,1768.7V-315L6798,1315.8c-898.7,898.8-1653.8,1642.3-1676.8,1653.8C5067.5,2996.4,4925.7,2996.4,4875.9,2969.6z"/><path d="M4862.5-2756.4l-63.2-55.6v-458V-3726l207-5.7l205-5.8v423.5c0,454.2-11.5,521.2-97.7,582.6C5040.7-2681.6,4935.3-2691.2,4862.5-2756.4z"/><path d="M4241.6-3992.4c-111.1-47.9-122.7-86.2-122.7-389v-274l55.6-61.3l55.6-63.2h770.4h770.4l55.6,63.2l55.5,61.3v274c0,436.9,44.1,415.8-885.3,415.8C4454.3-3967.5,4287.6-3973.2,4241.6-3992.4z"/><path d="M1003-4241.5c-46-46-65.1-82.4-65.1-126.5c0-76.7,49.8-162.9,109.2-189.7c32.6-15.3,477.2-21.1,1433.4-21.1h1389.3v201.2v201.2H2469H1068.2L1003-4241.5z"/><path d="M6131.1-4377.6v-201.2h1400.8h1400.8l65.1,65.2c49.8,49.8,65.2,80.5,65.2,136.1c0,55.6-15.3,86.2-65.2,136.1l-65.1,65.2H7531.9H6131.1V-4377.6z"/></g></g>
</svg>