<?xml version="1.0" encoding="utf-8"?>
<!-- Svg Vector Icons : http://www.onlinewebfonts.com/icon -->
<!DOCTYPE svg PUBLIC "-//W3C//DTD SVG 1.1//EN" "http://www.w3.org/Graphics/SVG/1.1/DTD/svg11.dtd">
<svg fill="rgba(255, 255, 150, 0.7)" version="1.1" xmlns="http://www.w3.org/2000/svg" xmlns:xlink="http://www.w3.org/1999/xlink" x="0px" y="0px" viewBox="0 0 1000 1000" enable-background="new 0 0 1000 1000" xml:space="preserve">
<metadata> Svg Vector Icons : http://www.onlinewebfonts.com/icon </metadata>
<g><g transform="translate(0.000000,512.000000) scale(0.100000,-0.100000)"><path d="M4583,4992c-1296.1-178.1-2330-1143-2605.7-2435.3c-61.3-283.3-70.8-779.2-21.1-1020.4c91.9-448,308.2-806,830.9-1380.4c518.8-568.6,763.9-873,827.1-1031.9c47.9-122.5,84.2-392.5,99.6-771.6l13.4-338.9h1265.5h1265.5v484.4c0,580.1,9.6,620.3,183.8,859.6c157,210.6,273.8,344.6,637.5,721.8c375.2,392.5,530.3,574.4,672,794.5c260.4,400.1,354.2,781.1,315.9,1286.6c-32.5,425-137.9,802.2-327.4,1173.6C7142.7,4501.9,5873.4,5168.1,4583,4992z"/><path d="M3721.4-2426.9v-191.5h1273.2h1273.2v191.5v191.4H4994.6H3721.4V-2426.9z"/><path d="M3721.4-3058.7v-191.4h1273.2h1273.2v191.4v191.5H4994.6H3721.4V-3058.7z"/><path d="M3721.4-3700v-201l1269.3,3.8l1267.4,5.7v191.5v191.5l-1267.4,5.7l-1269.3,3.8V-3700z"/><path d="M4058.4-4211.2c49.8-277.6,212.5-471,461.4-543.7c80.4-23,185.7-28.7,518.8-23l417.4,5.7l128.3,63.2c187.6,93.8,314,266.1,348.4,478.6l13.4,80.4h-949.6h-947.7L4058.4-4211.2z"/></g></g>
</svg>