<?xml version="1.0" encoding="utf-8"?>
<!-- Svg Vector Icons : http://www.onlinewebfonts.com/icon -->
<!DOCTYPE svg PUBLIC "-//W3C//DTD SVG 1.1//EN" "http://www.w3.org/Graphics/SVG/1.1/DTD/svg11.dtd">
<svg version="1.1" xmlns="http://www.w3.org/2000/svg" xmlns:xlink="http://www.w3.org/1999/xlink" x="0px" y="0px" viewBox="0 0 1000 1000" enable-background="new 0 0 1000 1000" xml:space="preserve">
<metadata> Svg Vector Icons : http://www.onlinewebfonts.com/icon </metadata>
<g><g transform="translate(0.000000,512.000000) scale(0.100000,-0.100000)"><path d="M4647.8,4999.2c-910.1-115-1703.3-603.5-2207.2-1358.4c-450.3-672.5-628.4-1578.8-444.5-2243.6c115-411.9,331.5-733.8,946.5-1406.3c463.7-507.7,662.9-774.1,708.9-958c44.1-178.2,67.1-433,67.1-741.5v-283.6h1272.2H6263l-1.9,436.8c0,530.7,21.1,651.4,141.8,831.6c134.1,199.2,291.2,383.2,664.8,774C7613.8,625,7767,822.4,7916.5,1138.5c138,293.2,159,410,159,835.4c0,314.2-7.7,404.3-42.2,569.1c-137.9,632.3-398.5,1113.2-854.5,1569.2c-274,272.1-480.9,423.4-802.8,586.3C5858.7,4957.1,5215,5070.1,4647.8,4999.2z M5517.7,4503C6305.2,4342,6970,3843.9,7330.2,3140.7c206.9-402.4,285.5-724.2,287.4-1166.8c0-258.7-5.7-316.1-44.1-440.7c-99.6-316.1-270.2-561.4-722.3-1034.6c-722.3-756.8-921.6-1019.3-996.3-1312.5c-32.6-134.1-67.1-427.3-67.1-597.8v-120.7h-229.9H5328v1235.8V939.2h134.1h134.1v115v115h-134.1H5328v105.4v105.4h-316.1h-316.1v-105.4v-105.4H4552h-143.7v-115v-115H4552h143.7V-296.6v-1237.7l-252.9,5.7l-254.8,5.7l-15.3,189.7c-17.3,243.3-78.6,540.3-136,668.7c-80.5,180.1-331.5,505.8-691.7,900.5c-662.9,728.1-812.4,946.5-910.1,1324c-78.6,306.6-42.2,810.5,86.2,1193.7c320,956.1,1134.3,1634.3,2134.4,1778C4895,4566.2,5266.7,4554.7,5517.7,4503z"/><path d="M3718.6-2432.9v-191.6h1274.1h1274.1v191.6v191.6H4992.7H3718.6V-2432.9z"/><path d="M3718.6-3065.2v-191.6h1274.1h1274.1v191.6v191.6H4992.7H3718.6V-3065.2z"/><path d="M3726.2-3530.8c-5.7-15.3-7.7-103.5-3.8-197.3l5.7-170.5l1270.3-5.8l1268.4-3.8v201.2v201.2H5002.3C3967.7-3505.9,3733.9-3509.7,3726.2-3530.8z"/><path d="M4071.1-4237.8c17.2-120.7,116.9-310.4,197.4-381.3c40.2-32.6,118.8-84.3,178.2-111.1c103.5-49.8,109.2-49.8,565.2-49.8c442.6,0,463.7,1.9,561.4,46c191.6,86.2,367.9,333.4,367.9,515.4v61.3h-940.8h-942.7L4071.1-4237.8z"/></g></g>
</svg>