<?xml version="1.0" encoding="utf-8"?>
<!-- Svg Vector Icons : http://www.onlinewebfonts.com/icon -->
<!DOCTYPE svg PUBLIC "-//W3C//DTD SVG 1.1//EN" "http://www.w3.org/Graphics/SVG/1.1/DTD/svg11.dtd">
<svg fill="rgba(0, 206, 209, 0.9)" version="1.1" xmlns="http://www.w3.org/2000/svg" xmlns:xlink="http://www.w3.org/1999/xlink" x="0px" y="0px" viewBox="0 0 1000 1000" enable-background="new 0 0 1000 1000" xml:space="preserve">
<metadata> Svg Vector Icons : http://www.onlinewebfonts.com/icon </metadata>
<g><g transform="translate(0.000000,512.000000) scale(0.100000,-0.100000)"><path d="M2128.9,2160.4V-697.3l-78.5-51.7c-118.7-80.4-375.2-333-469-463.2C1325-1570.1,1191-2019.9,1191-2511.8c0-625.9,220.1-1169.5,650.8-1600.1c859.4-861.3,2228-890,3116.1-65.1c604.8,562.7,851.8,1399.2,654.6,2222.2c-112.9,480.4-394.3,907.3-780.9,1182.9l-99.5,72.7v2859.6V5020H3430.5H2128.9V2160.4z M4406.6,3220.8V1747h-976.2h-976.2v1473.8v1473.8h976.2h976.2V3220.8z"/><path d="M6205.9,4771.2v-248.8h1301.6H8809v248.8V5020H7507.4H6205.9V4771.2z"/><path d="M7507.4,3144.2v-248.8h650.8H8809v248.8v248.8h-650.8h-650.8V3144.2z"/><path d="M7507.4,1670.4v-248.8h650.8H8809v248.8v248.8h-650.8h-650.8V1670.4z"/><path d="M6205.9,43.4v-248.8h1301.6H8809V43.4v248.8H7507.4H6205.9V43.4z"/><path d="M7507.4-1430.4v-248.8h650.8H8809v248.8v248.8h-650.8h-650.8V-1430.4z"/><path d="M7507.4-3066.9v-239.3h650.8H8809v239.3v239.3h-650.8h-650.8V-3066.9z"/><path d="M6205.9-4531.2V-4780h1301.6H8809v248.8v248.8H7507.4H6205.9V-4531.2z"/></g></g>
</svg>