<?xml version="1.0" encoding="utf-8"?>
<!-- Svg Vector Icons : http://www.onlinewebfonts.com/icon -->
<!DOCTYPE svg PUBLIC "-//W3C//DTD SVG 1.1//EN" "http://www.w3.org/Graphics/SVG/1.1/DTD/svg11.dtd">
<svg fill="rgba(0, 206, 209, 0.9)" version="1.1" xmlns="http://www.w3.org/2000/svg" xmlns:xlink="http://www.w3.org/1999/xlink" x="0px" y="0px" viewBox="0 0 1000 1000" enable-background="new 0 0 1000 1000" xml:space="preserve">
<metadata> Svg Vector Icons : http://www.onlinewebfonts.com/icon </metadata>
<g><g transform="translate(0.000000,511.000000) scale(0.100000,-0.100000)"><path d="M4752.8,4994.4C4124,4935,3558.4,4776.8,2992.9,4502c-1121.2-547.7-2015-1528.6-2440.2-2679.4C416.3,1450.8,360.9,1221.4,264,642l-9.9-55.4h719.8h717.8l43.5,213.6c268.9,1301.2,1275.4,2339.3,2588.5,2671.5c448.9,114.7,1089.6,132.5,1530.5,43.5c452.8-91,955.1-300.6,1289.3-537.9l172-122.6L6924,2477.1c-215.5-205.6-520.1-502.3-678.3-656.5c-263-259-280.8-282.8-237.3-292.7c87-19.8,3725.5-622.9,3731.4-618.9c7.9,7.9-618.9,3751.2-630.8,3761.1c-5.9,5.9-174-160.2-371.8-369.8c-197.7-209.6-367.8-383.6-377.7-387.6c-9.9-4-69.2,31.6-130.5,81.1c-567.5,435-1305.1,773.2-1993.3,911.6C5787,4996.3,5162.2,5033.9,4752.8,4994.4z"/><path d="M8264.7-574.1C8011.6-1790.2,7131.7-2771,5937.3-3168.5c-429.1-144.3-589.3-168.1-1105.4-168.1c-399.4-2-482.5,4-680.2,43.5c-460.7,92.9-961,302.6-1293.2,539.8l-174,124.6l65.3,61.3c464.7,442.9,1281.4,1243.8,1273.5,1249.7c-7.9,7.9-3755.1,636.7-3763.1,630.8C252.2-692.8,881-4436,890.9-4447.9c5.9-6,174,162.1,371.8,371.7c197.7,209.6,367.8,383.6,375.7,387.6c9.9,4,100.8-55.4,203.7-132.5c955.1-707.9,2183.1-1054,3375.5-951.2c961,85,1835.1,417.2,2604.3,990.7c259,193.8,773.2,707.9,963,967c284.7,383.6,518.1,812.7,670.3,1235.9C9585.7-1222.7,9643-985.4,9736-415.9l9.9,53.4h-719.8h-717.8L8264.7-574.1z"/></g></g>
</svg>