<?xml version="1.0" encoding="utf-8"?>
<!-- Svg Vector Icons : http://www.onlinewebfonts.com/icon -->
<!DOCTYPE svg PUBLIC "-//W3C//DTD SVG 1.1//EN" "http://www.w3.org/Graphics/SVG/1.1/DTD/svg11.dtd">
<svg fill="rgba(0, 206, 209, 0.9)" version="1.1" xmlns="http://www.w3.org/2000/svg" xmlns:xlink="http://www.w3.org/1999/xlink" x="0px" y="0px" viewBox="0 0 1000 1000" enable-background="new 0 0 1000 1000" xml:space="preserve">
<metadata> Svg Vector Icons : http://www.onlinewebfonts.com/icon </metadata>
<g><g transform="translate(0.000000,511.000000) scale(0.100000,-0.100000)"><path d="M4618.3,5000.3c-96.6-29.4-197.4-119.7-243.6-216.3c-39.9-81.9-44.1-128.1-44.1-432.5c0-340.1,0-344.3,65.1-478.7c170.1-356.9,228.9-638.3,228.9-1100.2c0-342.2,16.8-436.7,90.3-497.6c23.1-18.9,121.8-29.4,323.3-35.7c451.4-8.4,785.2-113.4,1150.6-356.9c417.8-279.2,745.4-732.8,877.6-1217.8c52.5-193.2,84-487.1,71.4-653c-10.5-147-10.5-151.2,54.6-214.2c111.3-109.2,193.2-130.2,485-130.2c403.1,0,705.4-71.4,1062.4-252c153.3-77.7,163.8-79.8,455.6-94.5c327.5-14.7,434.6,2.1,548,88.2c132.3,100.8,147,159.6,155.4,638.3c6.3,491.3-6.3,543.8-170.1,659.3l-90.3,63l-377.9,10.5l-380,10.5l-48.3,210c-84,375.8-256.2,797.8-453.5,1121.2l-96.6,155.4l268.8,264.6c239.4,237.3,270.9,275,291.9,367.4c48.3,203.7,6.3,285.5-331.8,629.9c-335.9,342.2-424.1,386.3-640.4,323.3c-65.1-18.9-147-84-340.1-272.9c-138.6-136.5-260.4-247.7-270.9-247.7c-8.4,0-75.6,37.8-147,81.9c-325.4,205.8-749.6,388.4-1144.3,491.3l-178.5,46.2l8.4,325.4c8.4,371.6-10.5,468.2-109.2,581.6c-111.3,126-165.9,138.6-613.1,144.9C4857.7,5017.1,4649.8,5010.8,4618.3,5000.3z"/><path d="M2126.1,4567.8c-92.4-33.6-128.1-63-157.5-128.1c-63-130.2-33.6-176.4,306.5-520.7c348.5-352.7,396.8-428.3,396.8-629.9c0-186.9-54.6-279.2-298.1-529.1c-254-258.2-363.2-321.2-550.1-321.2c-199.5,2.1-281.3,50.4-600.5,367.4C1049,2978.4,916.7,3091.8,881,3100.2c-92.4,23.1-186.9-14.7-241.5-94.5c-46.2-67.2-50.4-88.2-39.9-256.2c29.4-464,218.4-860.8,556.4-1173.7c342.2-314.9,653-430.4,1232.5-459.8c611-29.4,457.7,84,2021.9-1478.1c720.2-716,1341.6-1354.2,1383.6-1417.2c132.3-197.3,159.6-321.2,155.4-707.6c-6.3-600.5,121.8-961.6,468.2-1326.9c346.4-365.3,743.2-535.4,1245-537.5c254-2.1,256.2-2.1,319.1,58.8c75.6,71.4,96.6,149.1,65.1,235.1c-12.6,33.6-159.6,197.4-325.4,365.3c-201.6,203.7-317,335.9-344.3,398.9c-60.9,134.4-58.8,317,6.3,451.4c65.1,136.5,447.2,516.5,579.5,575.3c115.5,52.5,325.4,58.8,434.6,12.6c44.1-18.9,199.5-151.2,363.2-312.8c155.4-155.4,304.4-291.8,329.6-304.4c100.8-52.5,235.2-2.1,291.8,107.1c27.3,54.6,31.5,102.9,23.1,241.5c-46.2,634.1-398.9,1161.1-974.2,1450.8c-233,117.6-398.9,153.3-804.1,170.1c-422,18.9-522.8,46.2-728.6,199.5c-67.2,50.4-699.2,671.9-1404.6,1379.4c-1226.2,1234.6-1285,1295.4-1347.9,1436.1c-84,189-107.1,346.4-94.5,623.6c31.5,583.7-176.4,1066.6-617.3,1444.5c-151.2,130.2-430.4,277.2-636.2,335.9C2642.6,4561.5,2197.5,4595.1,2126.1,4567.8z"/><path d="M404.4,883c-105-31.5-203.7-113.4-252-210c-39.9-75.6-44.1-128.1-48.3-520.7L100-286.4l63-90.3C198.7-425,268-488,318.4-515.3c86.1-44.1,117.6-48.3,445.1-48.3h352.7l23.1-119.7c81.9-417.8,285.5-932.2,512.3-1297.5l52.5-84l-258.2-262.5c-224.7-228.9-260.3-275.1-283.4-365.3c-50.4-205.8,6.3-310.7,369.5-665.6c207.9-205.8,287.6-270.8,352.7-289.8c207.9-56.7,285.5-21,590,275.1l254.1,249.8l144.9-96.6c310.7-205.8,812.5-422,1169.5-506l161.7-37.8v-346.4c0-394.7,18.9-466.1,153.3-583.7c98.7-86.1,153.3-94.5,621.5-98.7l392.6-2.1l102.9,63c168,102.9,186.9,165.9,195.3,585.8c6.3,344.3,6.3,359-44.1,451.4c-77.7,140.7-176.4,436.7-212.1,632c-21,111.3-33.6,291.8-33.6,506c0,342.2-16.8,436.7-90.3,497.6c-23.1,18.9-121.8,29.4-323.3,35.7c-226.7,4.2-333.8,16.8-489.2,58.8C3709.2-1762.4,3115-1159.9,2919.7-385.1c-27.3,117.6-44.1,256.2-48.3,457.7c-6.3,270.8-8.4,293.9-54.6,344.3c-100.8,105-153.3,119.7-533.3,134.4c-426.2,18.9-640.4,69.3-965.8,226.8l-210,102.9l-314.9,12.6C595.5,899.8,450.6,895.6,404.4,883z"/></g></g>
</svg>